<svg xmlns="http://www.w3.org/2000/svg" role="img" viewBox="-14.26 4.74 1001.52 315.52"><title>KeyCloakCon-EU-horizontal-color.svg</title><defs><style>.cls-2{fill:#33c6e9}.cls-12{fill:#008aaa}.cls-14{fill:#acacac}.cls-19{fill:#00b8e3}</style></defs><path d="M565.06 199.2h402v101.34h-402z" class="cls-19"/><path fill="#4d4d4d" d="M34.09 73.21l28.52-49.22h114.85l28.36 49.7.03 99.45-28.39 49.68-114.81.04-28.85-49.72.29-99.92z"/><path fill="#ededed" d="M33.81 173.12h51.76l-28.43-50.1 23.12-49.8H34.1l-28.92 50.2"/><path fill="#e0e0e0" d="M101.26 173.12h37.83l33.45-48.76-32.87-50.67h-44.5l-26.81 48.96 32.89 50.47z"/><path d="M5.18 123.42l28.63 49.71h51.76l-28.12-49.54-52.27-.17z" class="cls-14"/><path fill="#9e9e9e" d="M68.91 123.43l32.36 49.7h37.83l32.93-49.68-103.11-.02z"/><path d="M81.72 123.45l-9.76 2.84-9.37-2.85 38.25-66.31 9.57 16.55" class="cls-19"/><path d="M110.37 173.12l-9.52 16.62-25.41-27.38-12.87-38.9v-.02h19.15" class="cls-2"/><path d="M62.6 123.45h-.02l-9.56 16.59-9.6-16.5 9.74-16.89 28.58-49.49h19.13" class="cls-12"/><path fill="#d4d4d4" d="M167.85 173.12h57.93l-.03-99.44h-57.9v99.44z"/><path fill="#919191" d="M167.85 123.58v49.54h57.83v-49.54h-57.83z"/><path d="M100.86 189.76H81.72l-28.71-49.73 9.56-16.56 38.29 66.29z" class="cls-19"/><path d="M177.4 123.45l-38.26 66.3c-3.52-5.17-9.54-16.61-9.54-16.61l28.7-49.69h19.1z" class="cls-12"/><path d="M158.25 189.75h-19.11l38.27-66.3 9.56-16.55 9.59 16.66m-19.16-.11h-19.1l-28.71-49.76 9.5-16.53 23.24 29.55 15.07 36.75z" class="cls-19"/><path d="M186.97 106.88l-9.56 16.57-38.3-66.29h19.16l28.7 49.72z" class="cls-2"/><path fill="#626262" d="M883.14 73.76c-.53 0-.97.42-.97.95v97.33c0 .53.43.97.97.97h20.2c.53 0 .97-.45.97-.97v-26.79c0-.23.08-.46.25-.65l.9-1.02 7.98-8.89c.37-.4.98-.42 1.38-.06.05.04.09.09.13.14l7.62 10.28 13.65 18.36 5 6.72 1.83 2.48c.2.25.48.4.79.4h23.45c.55-.01.99-.46.98-1.02 0-.19-.06-.38-.17-.54l-4.85-6.77-6.93-9.75c-2.06-2.87-4.27-5.98-6.65-9.31l-1.07-1.52-8.78-12.37c-3.21-4.5-6.43-9-9.65-13.5-.26-.37-.23-.87.08-1.2l7.74-8.6 18.58-20.66 11.17-12.41c.14-.17.23-.39.25-.61.02-.54-.41-.99-.94-1h-24.84c-.27 0-.53.11-.71.31l-7.77 8.45-16.58 18.03L906 112.65c-.36.4-.97.43-1.37.07-.21-.19-.32-.45-.32-.73V74.72c0-.54-.44-.97-.97-.97h-20.2z"/><path fill="#6f6f6f" d="M811.25 73.76c-.39 0-.74.24-.89.6l-26.01 60.19h-.01l-.03.08v.05l-3.38 7.81-.2.48-.43.97-.36.83-10.11 23.43-1.49 3.44c-.22.49 0 1.07.5 1.29.12.05.25.08.39.08h21.45c.37 0 .71-.22.87-.56 0-.02.02-.02.02-.03l7.47-17.39 1.24-2.87c.16-.36.51-.6.91-.6h40.31c.39 0 .74.24.89.6l8.3 19.29 9.3-33.02-7.48-17.31-6.68-15.46-13.53-31.3c-.15-.36-.5-.6-.89-.6h-20.16zm39.44 97.69l.43.97c.15.36.49.6.89.6h21.45c.54 0 .98-.45.98-.99 0-.13-.03-.26-.08-.39l-.2-.45L860 138.43l-9.3 33.02zm-29.29-66.67c.37 0 .73.2.9.58l4.7 10.98 4.75 11.1 1.42 3.31c.21.49 0 1.06-.5 1.28-.12.05-.26.08-.4.08h-21.9c-.53 0-.97-.43-.97-.97 0-.13.03-.27.08-.39l2.57-5.94 8.43-19.46c.16-.35.51-.58.9-.58z"/><path fill="#7d7d7d" d="M720.89 71.49c-4.12 0-8.07.38-11.81 1.17v.02-.02h-.01c-6.35 1.27-12.38 3.8-17.74 7.42-2.67 1.8-5.17 3.85-7.47 6.11-7.41 7.25-12.11 15.95-14.04 25.82s-.07.39-.07.39l-.02.11-.21 1.12-.01.05v.03l-.05.42v.04c-.43 2.83-.64 5.69-.63 8.56 0 13.12 4.07 24.31 12.22 33.56.87 1.03 1.83 2.02 2.82 2.99 2.52 2.47 5.2 4.64 8.02 6.49 8.38 5.48 18.06 8.22 29.03 8.22 1.22 0 2.42-.03 3.61-.11 10.63-.6 19.96-3.91 28.01-9.93 1.92-1.43 3.73-2.98 5.43-4.65l.05-.05c3.87-3.75 7.11-8.1 9.59-12.89.74-1.44 1.4-2.9 1.98-4.43 2.3-5.86 3.43-12.26 3.43-19.18 0-1.87-.08-3.7-.25-5.49v-.03c-.45-5.33-1.77-10.56-3.91-15.47-2.49-5.74-6.12-10.93-10.89-15.59-1.98-1.95-4.06-3.69-6.24-5.25-8.78-6.3-19.04-9.45-30.82-9.45zm.09 19.32c8.28 0 15.26 3.12 20.94 9.35.31.33.61.68.87 1.02 5.1 6.06 7.64 13.27 7.64 21.63 0 5.84-1.24 11.09-3.71 15.78-1.5 2.84-3.41 5.44-5.68 7.71-2.02 2.09-4.34 3.85-6.9 5.23-3.94 2.11-8.33 3.17-13.17 3.17-4.43.05-8.81-.96-12.77-2.95-2.02-1.04-3.89-2.33-5.59-3.84-.91-.78-1.77-1.62-2.57-2.51-5.69-6.2-8.53-13.73-8.53-22.57 0-.26 0-.51.01-.78.15-8.52 2.99-15.81 8.52-21.88 4.14-4.55 8.99-7.46 14.53-8.68 2.11-.45 4.25-.68 6.41-.67z"/><path fill="#888" d="M605.14 73.76c-.53 0-.97.42-.97.95v97.33c0 .53.43.97.97.97h62.5c.55 0 .98-.45.98-.97v-17.81c0-.54-.44-.97-.98-.97h-40.36c-.53 0-.96-.42-.97-.95V74.74c0-.38-.22-.72-.56-.88-.13-.07-.27-.1-.41-.1h-20.2z"/><path fill="#949494" d="M552.96 71.49c-14.58 0-26.91 4.93-37 14.77-1.83 1.8-3.49 3.68-5 5.64v.02c-6.75 8.76-10.11 19.16-10.11 31.18 0 6.87 1.07 13.17 3.24 18.93h.03-.02c1.27 3.47 2.95 6.67 4.98 9.72s.01.03.01.03c1.92 2.85 4.13 5.49 6.6 7.88 2.97 2.92 6.3 5.45 9.9 7.54h.01c1.54.89 3.13 1.7 4.75 2.41h.05l.01.01c6.84 3 14.5 4.51 23.04 4.51 2.51 0 4.97-.18 7.36-.53h.05c1.54-.21 3.05-.51 4.56-.87 8.4-2.02 16.09-6.27 23.1-12.76 1.4-1.29 2.79-2.69 4.14-4.18.34-.39.33-.98-.03-1.35l-12.8-13.19c-.22-.23-.54-.34-.86-.28-.23.05-.43.17-.58.35-3.42 4.04-7.31 7.08-11.66 9.09-4.33 2-9.11 2.99-14.34 2.99-3.58 0-6.94-.56-10.03-1.7-3.87-1.45-7.37-3.73-10.26-6.69-2.92-2.9-5.13-6.42-6.49-10.31h-.03.03c-1.27-3.57-1.9-7.53-1.9-11.9 0-8.6 2.55-15.56 7.7-20.87.38-.38.76-.76 1.17-1.15 5.91-5.44 13.03-8.16 21.37-8.16 3.05 0 5.97.38 8.73 1.14 6.34 1.71 11.89 5.41 16.68 11.05.38.45 1.07.48 1.45.03l12.46-14.13c.32-.38.32-.94-.01-1.32-9.75-10.71-21.57-16.63-35.42-17.74-1.61-.12-3.22-.2-4.87-.2h-.01z"/><path fill="#aaa" d="M417.23 73.76c-.54 0-.97.44-.97.97 0 .17.04.33.12.47l9.44 16.51 17.08 29.85 6.89 12.02c.08.15.13.31.13.48v37.97c0 .53.43.97.97.97h20.2c.54 0 .97-.45.97-.97v-37.97c0-.16.05-.33.13-.48l4.87-8.51 18.48-32.31 3.78-6.59 2.51-4.39h-.03.03l3.76-6.58c.26-.46.1-1.06-.36-1.32-.15-.08-.31-.13-.48-.13h-21.77c-.34 0-.66.18-.84.47l-19.72 33.94h-.01v.03l-1.06.78-.79.61c-.17-.09-.31-.22-.41-.38l-.33-.56-.49-.85-19.48-33.58c-.18-.3-.5-.48-.84-.47h-21.76zm77.52 10.18l-.02.02.02-.02z"/><path fill="#bcbcbc" d="M337.45 73.76c-.53 0-.97.42-.98.95v97.33c0 .53.43.97.97.97h71.17c.55 0 .98-.45.98-.97v-17.66c0-.54-.44-.97-.98-.97h-49.02c-.54 0-.98-.43-.98-.97v-18.65c0-.53.45-.98.98-.98h42.5c.54 0 .97-.43.97-.97v-16.93c0-.55-.45-.97-.97-.97h-42.51c-.54 0-.97-.44-.97-.97v-18.5c0-.55.45-.97.98-.97h47.47c.54 0 .97-.44.97-.97V74.74c0-.54-.44-.97-.97-.97h-69.61z"/><path fill="#b8b8b8" d="M240.95 73.76c-.53 0-.97.42-.97.95v97.33c0 .53.43.97.97.97h20.2c.55 0 .98-.45.98-.97v-26.79c0-.23.08-.46.25-.65l4.2-4.7 4.69-5.21c.37-.39.99-.42 1.38-.05.04.04.08.08.11.13l14.01 18.84 10.06 13.55 4.04 5.44c.18.25.47.4.78.4h23.46c.54 0 .98-.46.97-1 0-.2-.07-.39-.18-.55l-.85-1.2c-3.08-4.3-6.15-8.6-9.21-12.91-2.82-3.94-5.96-8.35-9.42-13.23l-.35-.5c-6.02-8.47-12.05-16.93-18.1-25.38-.25-.37-.22-.87.08-1.2l8.84-9.82h-.03.03v-.02l7.28-8.08 6.99-7.77 14.37-15.98c.36-.4.33-1.01-.07-1.37-.18-.16-.41-.25-.65-.25h-24.78c-.28 0-.54.11-.73.31l-15.36 16.69-20.15 21.9c-.36.4-.97.43-1.37.07-.21-.19-.32-.45-.32-.73V74.69c0-.53-.44-.96-.97-.96h-20.2zm.45 49.01v.05-.05zm61.22 41.61z"/><path fill="#a0a0a0" d="M450.33 172.68c-.12-.12-.22-8.93-.22-19.56v-19.34l-16.86-29.46c-9.96-17.4-16.78-29.66-16.67-29.95.16-.42 1.78-.49 11.37-.49 10.24 0 11.23.05 11.68.57.27.32 4.92 8.23 10.32 17.58 5.4 9.34 9.99 17.18 10.2 17.4.97 1.05 2.3-.9 12.37-18.27l10.03-17.29h11.35c9.45 0 11.38.08 11.53.47.1.25-7.37 13.66-16.59 29.78l-16.77 29.32-.33 39.28-10.58.09c-5.82.05-10.69-.01-10.81-.14z"/><path d="M336.74 172.48c-.08-.22-.11-22.47-.07-49.42l.08-49.01h70.95v19.14l-24.22.08c-17.23.06-24.35.19-24.67.45-.65.54-.65 19.51 0 20.05.31.26 6.8.39 22.19.45l21.75.09v18.15l-21.75.08c-15.4.06-21.88.19-22.19.45-.35.3-.44 2.32-.44 9.88 0 5.22.09 9.73.2 10.02.18.47 2.68.52 24.94.52 16.41 0 24.95.11 25.38.34.61.32.64.78.64 9.34 0 6.56-.11 9.11-.4 9.39-.59.59-72.16.57-72.38-.01z" class="cls-14"/><path d="M449.06 202.28c0-1.39 1.25-2.49 2.63-2.49h3.47l55.3 53.22h.14v-49.2c0-1.39 1.11-2.63 2.63-2.63h16.63c1.39 0 2.63 1.25 2.63 2.63v93.28c0 1.39-1.25 2.49-2.63 2.49h-2.22c-.42 0-1.52-.42-1.8-.69l-54.75-55.03h-.14v51.7c0 1.39-1.11 2.63-2.63 2.63h-16.49c-1.39 0-2.63-1.25-2.63-2.63l-.14-93.28zm-160.12-3.73c-14.58 0-26.91 4.93-37 14.77-1.83 1.8-3.49 3.68-5 5.64v.02c-6.75 8.76-10.11 19.16-10.11 31.18 0 6.87 1.07 13.17 3.24 18.93h.03-.02c1.27 3.47 2.95 6.67 4.98 9.72s.01.03.01.03c1.92 2.85 4.13 5.49 6.6 7.88 2.97 2.92 6.3 5.45 9.9 7.54h.01c1.54.89 3.13 1.7 4.75 2.41h.05l.01.01c6.84 3 14.5 4.51 23.04 4.51 2.51 0 4.97-.18 7.36-.53h.05c1.54-.21 3.05-.51 4.56-.87 8.4-2.02 16.09-6.27 23.1-12.76 1.4-1.29 2.79-2.69 4.14-4.18.34-.39.33-.98-.03-1.35l-12.8-13.19c-.22-.23-.54-.34-.86-.28-.23.05-.43.17-.58.35-3.42 4.04-7.31 7.08-11.66 9.09-4.33 2-9.11 2.99-14.34 2.99-3.58 0-6.94-.56-10.03-1.7-3.87-1.45-7.37-3.73-10.26-6.69-2.92-2.9-5.13-6.42-6.49-10.31h-.03.03c-1.27-3.57-1.9-7.53-1.9-11.9 0-8.6 2.55-15.56 7.7-20.87.38-.38.76-.76 1.17-1.15 5.91-5.44 13.03-8.16 21.37-8.16 3.05 0 5.97.38 8.73 1.14 6.34 1.71 11.89 5.41 16.68 11.05.38.45 1.07.48 1.45.03l12.46-14.13c.32-.38.32-.94-.01-1.32-9.75-10.71-21.57-16.63-35.42-17.74-1.61-.12-3.22-.2-4.87-.2h-.01zm96.13.06c-4.12 0-8.07.38-11.81 1.17v.02-.02h-.01c-6.35 1.27-12.38 3.8-17.74 7.42-2.67 1.8-5.17 3.85-7.47 6.11-7.41 7.25-12.11 15.95-14.04 25.82s-.07.39-.07.39l-.02.11-.21 1.12-.01.05v.03l-.05.42v.04c-.43 2.83-.64 5.69-.63 8.56 0 13.12 4.07 24.31 12.22 33.56.87 1.03 1.83 2.02 2.82 2.99 2.52 2.47 5.2 4.64 8.02 6.49 8.38 5.48 18.06 8.22 29.03 8.22 1.22 0 2.42-.03 3.61-.11 10.63-.6 19.96-3.91 28.01-9.93 1.92-1.43 3.73-2.98 5.43-4.65l.05-.05c3.87-3.75 7.11-8.1 9.59-12.89.74-1.44 1.4-2.9 1.98-4.43 2.3-5.86 3.43-12.26 3.43-19.18 0-1.87-.08-3.7-.25-5.49v-.03c-.45-5.33-1.77-10.56-3.91-15.47-2.49-5.74-6.12-10.93-10.89-15.59-1.98-1.95-4.06-3.69-6.24-5.25-8.78-6.3-19.04-9.45-30.82-9.45zm.09 19.32c8.28 0 15.26 3.12 20.94 9.35.31.33.61.68.87 1.02 5.1 6.06 7.64 13.27 7.64 21.63 0 5.84-1.24 11.09-3.71 15.78-1.5 2.84-3.41 5.44-5.68 7.71-2.02 2.09-4.34 3.85-6.9 5.23-3.94 2.11-8.33 3.17-13.17 3.17-4.43.05-8.81-.96-12.77-2.95-2.02-1.04-3.89-2.33-5.59-3.84-.91-.78-1.77-1.62-2.57-2.51-5.69-6.2-8.53-13.73-8.53-22.57 0-.26 0-.51.01-.78.15-8.52 2.99-15.81 8.52-21.88 4.14-4.55 8.99-7.46 14.53-8.68 2.11-.45 4.25-.68 6.41-.67z" class="cls-19"/><path fill="#fff" d="M622.62 235.53v7.91h24.85v11.32h-24.85v8.95h27.37v11.32h-40.01v-50.81h40.01v11.32h-27.37zm36.31 17.23v-28.55h12.65v27.96c0 7.17 4.59 12.28 10.95 12.28s11.02-5.1 11.02-12.28v-27.96h12.57v28.55c0 13.61-9.69 23.15-23.59 23.15s-23.59-9.54-23.59-23.15zm86.83 22.27l-11.17-15.9h-5.03v15.9h-12.65v-50.81h23.59c11.24 0 19.3 7.17 19.3 17.45 0 7.77-4.59 13.76-11.76 16.27l12.06 17.08h-14.35zm-16.2-27.44h9.84c4.36 0 7.4-2.37 7.4-5.92s-3.03-5.92-7.4-5.92h-9.84v11.83zm37.05 1.99c0-14.27 12.5-26.26 27.36-26.26s27.29 11.98 27.29 26.26-12.5 26.33-27.29 26.33-27.36-12.06-27.36-26.33zm41.64 0c0-7.99-6.51-14.79-14.27-14.79s-14.35 6.8-14.35 14.79 6.58 14.87 14.35 14.87 14.27-6.8 14.27-14.87zm22.18-25.36h23.59c11.24 0 19.3 7.17 19.3 17.45s-8.06 17.45-19.3 17.45h-10.95v15.9h-12.65v-50.81zm22.49 23.37c4.36 0 7.4-2.37 7.4-5.92s-3.03-5.92-7.4-5.92h-9.84v11.83h9.84zm41.85-12.06v7.91h24.85v11.32h-24.85v8.95h27.37v11.32h-40.01v-50.81h40.01v11.32h-27.37z"/></svg>